#N canvas 4 0 1920 1016 12;
#X obj 220 7 loadbang;
#X msg 220 55 375;
#X obj 162 79 tgl 19 0 empty empty empty 0 -10 0 12 #fcfcfc #000000 #000000 0 1;
#X obj 165 133 metro;
#X obj 167 257 bng 19 250 50 0 empty empty empty 0 -10 0 12 #fcfcfc #000000 #000000;
#X obj -18 133 loadbang;
#X obj 78 133 sel 0;
#X obj 79 208 bng 19 250 50 0 empty empty empty 0 -10 0 12 #fcfcfc #000000 #000000;
#X msg 79 256 -1;
#X obj 167 304 int 1, f 6;
#X text 29 210 Reset;
#X obj 254 361 + 1;
#X obj 167 408 % 8;
#X obj 167 456 + 1;
#X floatatom 167 504 5 0 0 0 - - - 0;
#X obj -49 549 sel 1;
#X obj 24 549 sel 2;
#X obj 106 549 sel 3;
#X obj 179 549 sel 4;
#X obj 253 549 sel 5;
#X obj 326 549 sel 6;
#X obj 383 546 sel 7;
#X obj 462 546 sel 8;
#X obj -49 597 bng 19 250 50 0 empty empty empty 0 -10 0 12 #fcfcfc #000000 #000000;
#X obj 24 597 bng 19 250 50 0 empty empty empty 0 -10 0 12 #fcfcfc #000000 #000000;
#X obj 106 597 bng 19 250 50 0 empty empty empty 0 -10 0 12 #fcfcfc #000000 #000000;
#X obj 179 597 bng 19 250 50 0 empty empty empty 0 -10 0 12 #fcfcfc #000000 #000000;
#X obj 253 597 bng 19 250 50 0 empty empty empty 0 -10 0 12 #fcfcfc #000000 #000000;
#X obj 326 597 bng 19 250 50 0 empty empty empty 0 -10 0 12 #fcfcfc #000000 #000000;
#X obj 391 594 bng 19 250 50 0 empty empty empty 0 -10 0 12 #fcfcfc #000000 #000000;
#X obj 462 594 bng 19 250 50 0 empty empty empty 0 -10 0 12 #fcfcfc #000000 #000000;
#X obj -48 635 s One;
#X obj 23 642 s Two;
#X obj 100 639 s Three;
#X obj 179 640 s Four;
#X obj 254 638 s Five;
#X obj 327 639 s Six;
#X obj 389 639 s Seven;
#X obj 464 637 s Eight;
#X floatatom 167 361 5 0 0 0 - - - 0;
#X obj 649 259 receive One;
#X obj 737 258 receive Two;
#X obj 824 255 receive Three;
#X obj 925 255 receive Four;
#X obj 1019 255 receive Five;
#X obj 648 302 bng 19 250 50 0 empty empty empty 0 -10 0 12 #fcfcfc #000000 #000000;
#X obj 694 301 tgl 19 0 empty empty empty 0 -10 0 12 #fcfcfc #000000 #000000 0 1;
#X obj 650 346 spigot;
#X obj 649 383 bng 19 250 50 0 empty empty empty 0 -10 0 12 #fcfcfc #000000 #000000;
#X obj 739 302 bng 19 250 50 0 empty empty empty 0 -10 0 12 #fcfcfc #000000 #000000;
#X obj 785 301 tgl 19 0 empty empty empty 0 -10 0 12 #fcfcfc #000000 #000000 0 1;
#X obj 741 346 spigot;
#X obj 740 383 bng 19 250 50 0 empty empty empty 0 -10 0 12 #fcfcfc #000000 #000000;
#X obj 970 467 send Note;
#X obj 836 300 bng 19 250 50 0 empty empty empty 0 -10 0 12 #fcfcfc #000000 #000000;
#X obj 882 299 tgl 19 0 empty empty empty 0 -10 0 12 #fcfcfc #000000 #000000 0 1;
#X obj 838 344 spigot;
#X obj 837 381 bng 19 250 50 0 empty empty empty 0 -10 0 12 #fcfcfc #000000 #000000;
#X obj 927 300 bng 19 250 50 0 empty empty empty 0 -10 0 12 #fcfcfc #000000 #000000;
#X obj 973 299 tgl 19 0 empty empty empty 0 -10 0 12 #fcfcfc #000000 #000000 0 1;
#X obj 929 344 spigot;
#X obj 928 381 bng 19 250 50 0 empty empty empty 0 -10 0 12 #fcfcfc #000000 #000000;
#X obj 1120 255 receive Six;
#X obj 1216 254 receive Seven;
#X obj 1325 254 receive Eight;
#X obj 1029 299 bng 19 250 50 0 empty empty empty 0 -10 0 12 #fcfcfc #000000 #000000;
#X obj 1075 298 tgl 19 0 empty empty empty 0 -10 0 12 #fcfcfc #000000 #000000 0 1;
#X obj 1031 343 spigot;
#X obj 1030 380 bng 19 250 50 0 empty empty empty 0 -10 0 12 #fcfcfc #000000 #000000;
#X obj 1120 299 bng 19 250 50 0 empty empty empty 0 -10 0 12 #fcfcfc #000000 #000000;
#X obj 1166 298 tgl 19 0 empty empty empty 0 -10 0 12 #fcfcfc #000000 #000000 0 1;
#X obj 1122 343 spigot;
#X obj 1121 380 bng 19 250 50 0 empty empty empty 0 -10 0 12 #fcfcfc #000000 #000000;
#X obj 1221 301 bng 19 250 50 0 empty empty empty 0 -10 0 12 #fcfcfc #000000 #000000;
#X obj 1267 300 tgl 19 0 empty empty empty 0 -10 0 12 #fcfcfc #000000 #000000 0 1;
#X obj 1223 345 spigot;
#X obj 1222 382 bng 19 250 50 0 empty empty empty 0 -10 0 12 #fcfcfc #000000 #000000;
#X obj 1330 299 bng 19 250 50 0 empty empty empty 0 -10 0 12 #fcfcfc #000000 #000000;
#X obj 1376 298 tgl 19 0 empty empty empty 0 -10 0 12 #fcfcfc #000000 #000000 0 1;
#X obj 1332 343 spigot;
#X obj 1331 380 bng 19 250 50 0 empty empty empty 0 -10 0 12 #fcfcfc #000000 #000000;
#X obj 1342 619 receive Note;
#X obj 1341 654 bng 19 250 50 0 empty empty empty 0 -10 0 12 #fcfcfc #000000 #000000;
#X obj 1338 759 readsf~;
#X obj 1342 807 *~ 0.5;
#X obj 1340 859 dac~;
#X msg 1343 711 open note.wav \, 1;
#X obj 1135 612 receive Note;
#X msg 1135 729 100;
#X text 259 104 Tempo (ms);
#X msg 1176 729 375, f 4;
#X obj 1136 672 bng 19 250 50 0 empty empty empty 0 -10 0 12 #fcfcfc #000000 #000000;
#X obj 1191 671 bng 19 250 50 0 empty empty empty 0 -10 0 12 #fcfcfc #000000 #000000;
#X obj 1239 671 bng 19 250 50 0 empty empty empty 0 -10 0 12 #fcfcfc #000000 #000000;
#X obj 1121 795 makenote;
#X obj 739 166 v step1;
#X obj 806 165 v step2;
#X obj 877 163 v step3;
#X obj 944 162 v step4;
#X obj 1011 164 v step5;
#X obj 1078 163 v step6;
#X obj 1154 164 v step7;
#X obj 1226 163 v step8;
#X obj 434 18 loadbang;
#X msg 434 66 0;
#X obj 1512 105 notein;
#X obj 1512 150 stripnote;
#X obj 1514 192 t b;
#X obj 951 54 sel 1 2 3 4 5 6 7 8;
#X obj 243 494 v current_step;
#X obj 1512 237 v current_step;
#X msg 825 84 1;
#X msg 873 85 1;
#X msg 923 85 1;
#X msg 971 84 1;
#X msg 1022 85 1;
#X msg 1072 87 1;
#X msg 1120 86 1;
#X msg 1168 85 1;
#X floatatom 220 103 5 0 0 0 - - - 0;
#X obj 1137 852 noteout;
#X msg 1226 730 1, f 4;
#X msg 1094 729 48;
#X text 1062 732 C3;
#X connect 0 0 1 0;
#X connect 1 0 119 0;
#X connect 2 0 3 0;
#X connect 2 0 6 0;
#X connect 3 0 4 0;
#X connect 4 0 9 0;
#X connect 5 0 7 0;
#X connect 6 0 7 0;
#X connect 7 0 8 0;
#X connect 7 0 104 0;
#X connect 8 0 9 0;
#X connect 9 0 39 0;
#X connect 9 0 11 0;
#X connect 11 0 9 1;
#X connect 12 0 13 0;
#X connect 13 0 14 0;
#X connect 14 0 15 0;
#X connect 14 0 16 0;
#X connect 14 0 17 0;
#X connect 14 0 18 0;
#X connect 14 0 19 0;
#X connect 14 0 20 0;
#X connect 14 0 21 0;
#X connect 14 0 22 0;
#X connect 14 0 109 0;
#X connect 15 0 23 0;
#X connect 16 0 24 0;
#X connect 17 0 25 0;
#X connect 18 0 26 0;
#X connect 19 0 27 0;
#X connect 20 0 28 0;
#X connect 21 0 29 0;
#X connect 22 0 30 0;
#X connect 23 0 31 0;
#X connect 24 0 32 0;
#X connect 25 0 33 0;
#X connect 26 0 34 0;
#X connect 27 0 35 0;
#X connect 28 0 36 0;
#X connect 29 0 37 0;
#X connect 30 0 38 0;
#X connect 39 0 12 0;
#X connect 40 0 45 0;
#X connect 40 0 95 0;
#X connect 41 0 49 0;
#X connect 41 0 96 0;
#X connect 42 0 54 0;
#X connect 42 0 97 0;
#X connect 43 0 58 0;
#X connect 43 0 98 0;
#X connect 44 0 65 0;
#X connect 44 0 99 0;
#X connect 45 0 47 0;
#X connect 46 0 47 1;
#X connect 47 0 48 0;
#X connect 48 0 53 0;
#X connect 49 0 51 0;
#X connect 50 0 51 1;
#X connect 51 0 52 0;
#X connect 52 0 53 0;
#X connect 54 0 56 0;
#X connect 55 0 56 1;
#X connect 56 0 57 0;
#X connect 57 0 53 0;
#X connect 58 0 60 0;
#X connect 59 0 60 1;
#X connect 60 0 61 0;
#X connect 61 0 53 0;
#X connect 62 0 69 0;
#X connect 62 0 100 0;
#X connect 63 0 73 0;
#X connect 63 0 101 0;
#X connect 64 0 77 0;
#X connect 64 0 102 0;
#X connect 65 0 67 0;
#X connect 66 0 67 1;
#X connect 67 0 68 0;
#X connect 68 0 53 0;
#X connect 69 0 71 0;
#X connect 70 0 71 1;
#X connect 71 0 72 0;
#X connect 72 0 53 0;
#X connect 73 0 75 0;
#X connect 74 0 75 1;
#X connect 75 0 76 0;
#X connect 76 0 53 0;
#X connect 77 0 79 0;
#X connect 78 0 79 1;
#X connect 79 0 80 0;
#X connect 80 0 53 0;
#X connect 87 0 91 0;
#X connect 87 0 92 0;
#X connect 87 0 93 0;
#X connect 88 0 94 1;
#X connect 90 0 94 2;
#X connect 91 0 122 0;
#X connect 92 0 88 0;
#X connect 93 0 90 0;
#X connect 93 0 121 0;
#X connect 94 0 120 0;
#X connect 94 1 120 1;
#X connect 95 0 47 1;
#X connect 95 0 46 0;
#X connect 96 0 51 1;
#X connect 96 0 50 0;
#X connect 97 0 56 1;
#X connect 97 0 55 0;
#X connect 98 0 60 1;
#X connect 98 0 59 0;
#X connect 99 0 67 1;
#X connect 99 0 66 0;
#X connect 100 0 71 1;
#X connect 100 0 70 0;
#X connect 101 0 75 1;
#X connect 101 0 74 0;
#X connect 102 0 79 1;
#X connect 102 0 78 0;
#X connect 103 0 104 0;
#X connect 104 0 95 0;
#X connect 104 0 96 0;
#X connect 104 0 97 0;
#X connect 104 0 98 0;
#X connect 104 0 99 0;
#X connect 104 0 100 0;
#X connect 104 0 101 0;
#X connect 104 0 102 0;
#X connect 105 0 106 0;
#X connect 105 1 106 1;
#X connect 106 0 107 0;
#X connect 107 0 110 0;
#X connect 108 0 111 0;
#X connect 108 1 112 0;
#X connect 108 2 113 0;
#X connect 108 3 114 0;
#X connect 108 4 115 0;
#X connect 108 5 116 0;
#X connect 108 6 117 0;
#X connect 108 7 118 0;
#X connect 110 0 108 0;
#X connect 111 0 95 0;
#X connect 112 0 96 0;
#X connect 113 0 97 0;
#X connect 114 0 98 0;
#X connect 115 0 99 0;
#X connect 116 0 100 0;
#X connect 117 0 101 0;
#X connect 118 0 102 0;
#X connect 119 0 3 1;
#X connect 121 0 120 2;
#X connect 122 0 94 0;
