#N canvas -9 0 1920 1016 12;
#X obj 435 75 loadbang;
#X msg 435 123 375;
#X floatatom 435 171 5 0 0 0 - - - 0;
#X obj 377 147 tgl 19 0 empty empty empty 0 -10 0 12 #fcfcfc #000000 #000000 0 1;
#X obj 380 201 metro;
#X obj 382 325 bng 19 250 50 0 empty empty empty 0 -10 0 12 #fcfcfc #000000 #000000;
#X obj 197 201 loadbang;
#X obj 293 201 sel 0;
#X obj 294 276 bng 19 250 50 0 empty empty empty 0 -10 0 12 #fcfcfc #000000 #000000;
#X msg 294 324 -1;
#X obj 382 372 int 1, f 6;
#X text 244 278 Reset;
#X obj 469 429 + 1;
#X obj 382 476 % 8;
#X obj 382 524 + 1;
#X floatatom 382 572 5 0 0 0 - - - 0;
#X obj 166 617 sel 1;
#X obj 239 617 sel 2;
#X obj 321 617 sel 3;
#X obj 394 617 sel 4;
#X obj 468 617 sel 5;
#X obj 541 617 sel 6;
#X obj 623 617 sel 7;
#X obj 702 617 sel 8;
#X obj 166 665 bng 19 250 50 0 empty empty empty 0 -10 0 12 #fcfcfc #000000 #000000;
#X obj 239 665 bng 19 250 50 0 empty empty empty 0 -10 0 12 #fcfcfc #000000 #000000;
#X obj 321 665 bng 19 250 50 0 empty empty empty 0 -10 0 12 #fcfcfc #000000 #000000;
#X obj 394 665 bng 19 250 50 0 empty empty empty 0 -10 0 12 #fcfcfc #000000 #000000;
#X obj 468 665 bng 19 250 50 0 empty empty empty 0 -10 0 12 #fcfcfc #000000 #000000;
#X obj 541 665 bng 19 250 50 0 empty empty empty 0 -10 0 12 #fcfcfc #000000 #000000;
#X obj 631 665 bng 19 250 50 0 empty empty empty 0 -10 0 12 #fcfcfc #000000 #000000;
#X obj 702 665 bng 19 250 50 0 empty empty empty 0 -10 0 12 #fcfcfc #000000 #000000;
#X obj 167 703 s One;
#X obj 238 710 s Two;
#X obj 315 707 s Three;
#X obj 394 708 s Four;
#X obj 469 706 s Five;
#X obj 542 707 s Six;
#X obj 629 710 s Seven;
#X obj 704 708 s Eight;
#X floatatom 382 429 5 0 0 0 - - - 0;
#X obj 588 63 receive One;
#X obj 676 62 receive Two;
#X obj 763 59 receive Three;
#X obj 864 59 receive Four;
#X obj 958 59 receive Five;
#X obj 587 106 bng 19 250 50 0 empty empty empty 0 -10 0 12 #fcfcfc #000000 #000000;
#X obj 633 105 tgl 19 0 empty empty empty 0 -10 0 12 #fcfcfc #000000 #000000 0 1;
#X obj 589 150 spigot;
#X obj 588 187 bng 19 250 50 0 empty empty empty 0 -10 0 12 #fcfcfc #000000 #000000;
#X obj 678 106 bng 19 250 50 0 empty empty empty 0 -10 0 12 #fcfcfc #000000 #000000;
#X obj 724 105 tgl 19 0 empty empty empty 0 -10 0 12 #fcfcfc #000000 #000000 0 1;
#X obj 680 150 spigot;
#X obj 679 187 bng 19 250 50 0 empty empty empty 0 -10 0 12 #fcfcfc #000000 #000000;
#X obj 909 271 send Note;
#X obj 775 104 bng 19 250 50 0 empty empty empty 0 -10 0 12 #fcfcfc #000000 #000000;
#X obj 821 103 tgl 19 0 empty empty empty 0 -10 0 12 #fcfcfc #000000 #000000 0 1;
#X obj 777 148 spigot;
#X obj 776 185 bng 19 250 50 0 empty empty empty 0 -10 0 12 #fcfcfc #000000 #000000;
#X obj 866 104 bng 19 250 50 0 empty empty empty 0 -10 0 12 #fcfcfc #000000 #000000;
#X obj 912 103 tgl 19 0 empty empty empty 0 -10 0 12 #fcfcfc #000000 #000000 0 1;
#X obj 868 148 spigot;
#X obj 867 185 bng 19 250 50 0 empty empty empty 0 -10 0 12 #fcfcfc #000000 #000000;
#X obj 1059 59 receive Six;
#X obj 1155 58 receive Seven;
#X obj 1264 58 receive Eight;
#X obj 968 103 bng 19 250 50 0 empty empty empty 0 -10 0 12 #fcfcfc #000000 #000000;
#X obj 1014 102 tgl 19 0 empty empty empty 0 -10 0 12 #fcfcfc #000000 #000000 0 1;
#X obj 970 147 spigot;
#X obj 969 184 bng 19 250 50 0 empty empty empty 0 -10 0 12 #fcfcfc #000000 #000000;
#X obj 1059 103 bng 19 250 50 0 empty empty empty 0 -10 0 12 #fcfcfc #000000 #000000;
#X obj 1105 102 tgl 19 0 empty empty empty 0 -10 0 12 #fcfcfc #000000 #000000 0 1;
#X obj 1061 147 spigot;
#X obj 1060 184 bng 19 250 50 0 empty empty empty 0 -10 0 12 #fcfcfc #000000 #000000;
#X obj 1160 105 bng 19 250 50 0 empty empty empty 0 -10 0 12 #fcfcfc #000000 #000000;
#X obj 1206 104 tgl 19 0 empty empty empty 0 -10 0 12 #fcfcfc #000000 #000000 0 1;
#X obj 1162 149 spigot;
#X obj 1161 186 bng 19 250 50 0 empty empty empty 0 -10 0 12 #fcfcfc #000000 #000000;
#X obj 1269 103 bng 19 250 50 0 empty empty empty 0 -10 0 12 #fcfcfc #000000 #000000;
#X obj 1315 102 tgl 19 0 empty empty empty 0 -10 0 12 #fcfcfc #000000 #000000 0 1;
#X obj 1271 147 spigot;
#X obj 1270 184 bng 19 250 50 0 empty empty empty 0 -10 0 12 #fcfcfc #000000 #000000;
#X obj 882 387 receive Note;
#X obj 881 422 bng 19 250 50 0 empty empty empty 0 -10 0 12 #fcfcfc #000000 #000000;
#X obj 878 527 readsf~;
#X obj 882 575 *~ 0.5;
#X obj 880 627 dac~;
#X msg 883 479 open note.wav \, 1;
#X obj 1094 383 receive Note;
#X msg 1095 506 60;
#X msg 1171 501 100;
#X obj 1096 555 makenote 100 120;
#X obj 1096 623 noteout;
#X obj 495 236 * 0.9;
#X obj 494 266 int;
#X obj 495 294 s duration_ms;
#X obj 1279 383 r duration_ms;
#X text 474 172 Tempo (ms);
#X obj 495 209 f;
#X msg 1235 504 375, f 4;
#X obj 1095 443 bng 19 250 50 0 empty empty empty 0 -10 0 12 #fcfcfc #000000 #000000;
#X obj 1150 442 bng 19 250 50 0 empty empty empty 0 -10 0 12 #fcfcfc #000000 #000000;
#X obj 1198 442 bng 19 250 50 0 empty empty empty 0 -10 0 12 #fcfcfc #000000 #000000;
#X connect 0 0 1 0;
#X connect 1 0 2 0;
#X connect 2 0 4 1;
#X connect 2 0 98 0;
#X connect 3 0 4 0;
#X connect 3 0 7 0;
#X connect 4 0 5 0;
#X connect 5 0 10 0;
#X connect 6 0 8 0;
#X connect 7 0 8 0;
#X connect 8 0 9 0;
#X connect 9 0 10 0;
#X connect 10 0 40 0;
#X connect 10 0 12 0;
#X connect 12 0 10 1;
#X connect 13 0 14 0;
#X connect 14 0 15 0;
#X connect 15 0 16 0;
#X connect 15 0 17 0;
#X connect 15 0 18 0;
#X connect 15 0 19 0;
#X connect 15 0 20 0;
#X connect 15 0 21 0;
#X connect 15 0 22 0;
#X connect 15 0 23 0;
#X connect 16 0 24 0;
#X connect 17 0 25 0;
#X connect 18 0 26 0;
#X connect 19 0 27 0;
#X connect 20 0 28 0;
#X connect 21 0 29 0;
#X connect 22 0 30 0;
#X connect 23 0 31 0;
#X connect 24 0 32 0;
#X connect 25 0 33 0;
#X connect 26 0 34 0;
#X connect 27 0 35 0;
#X connect 28 0 36 0;
#X connect 29 0 37 0;
#X connect 30 0 38 0;
#X connect 31 0 39 0;
#X connect 40 0 13 0;
#X connect 41 0 46 0;
#X connect 42 0 50 0;
#X connect 43 0 55 0;
#X connect 44 0 59 0;
#X connect 45 0 66 0;
#X connect 46 0 48 0;
#X connect 47 0 48 1;
#X connect 48 0 49 0;
#X connect 49 0 54 0;
#X connect 50 0 52 0;
#X connect 51 0 52 1;
#X connect 52 0 53 0;
#X connect 53 0 54 0;
#X connect 55 0 57 0;
#X connect 56 0 57 1;
#X connect 57 0 58 0;
#X connect 58 0 54 0;
#X connect 59 0 61 0;
#X connect 60 0 61 1;
#X connect 61 0 62 0;
#X connect 62 0 54 0;
#X connect 63 0 70 0;
#X connect 64 0 74 0;
#X connect 65 0 78 0;
#X connect 66 0 68 0;
#X connect 67 0 68 1;
#X connect 68 0 69 0;
#X connect 69 0 54 0;
#X connect 70 0 72 0;
#X connect 71 0 72 1;
#X connect 72 0 73 0;
#X connect 73 0 54 0;
#X connect 74 0 76 0;
#X connect 75 0 76 1;
#X connect 76 0 77 0;
#X connect 77 0 54 0;
#X connect 78 0 80 0;
#X connect 79 0 80 1;
#X connect 80 0 81 0;
#X connect 81 0 54 0;
#X connect 88 0 100 0;
#X connect 88 0 101 0;
#X connect 88 0 102 0;
#X connect 89 0 91 0;
#X connect 90 0 91 1;
#X connect 91 0 92 0;
#X connect 93 0 94 0;
#X connect 94 0 95 0;
#X connect 98 0 93 0;
#X connect 99 0 91 2;
#X connect 100 0 89 0;
#X connect 101 0 90 0;
#X connect 102 0 99 0;
