#N canvas 951 0 956 1003 12;
#X obj 142 487 dac~;
#X obj 32 216 osc~ 440;
#X obj 130 222 osc~;
#X obj 130 254 *~ 0.75;
#X obj 130 159 * 2;
#X floatatom 221 77 5 0 0 0 - - - 0;
#X floatatom 130 191 5 0 0 0 - - - 0;
#X obj 143 387 *~ 0.1;
#X obj 228 222 osc~;
#X floatatom 228 191 5 0 0 0 - - - 0;
#X obj 333 222 osc~;
#X floatatom 333 191 5 0 0 0 - - - 0;
#X obj 432 222 osc~;
#X floatatom 432 191 5 0 0 0 - - - 0;
#X obj 228 254 *~ 0.5;
#X obj 333 254 *~ 0.35;
#X obj 432 254 *~ 0.25;
#X obj 228 159 * 3;
#X obj 333 159 * 4;
#X obj 432 159 * 5;
#X obj 89 17 loadbang;
#X floatatom 89 49 5 0 0 0 - - - 0;
#X obj 143 419 clip~ -0.95 0.95;
#X connect 1 0 7 0;
#X connect 2 0 3 0;
#X connect 3 0 7 0;
#X connect 4 0 6 0;
#X connect 5 0 4 0;
#X connect 5 0 1 0;
#X connect 5 0 17 0;
#X connect 5 0 18 0;
#X connect 5 0 19 0;
#X connect 6 0 2 0;
#X connect 7 0 22 0;
#X connect 8 0 14 0;
#X connect 9 0 8 0;
#X connect 10 0 15 0;
#X connect 11 0 10 0;
#X connect 12 0 16 0;
#X connect 13 0 12 0;
#X connect 14 0 7 0;
#X connect 15 0 7 0;
#X connect 16 0 7 0;
#X connect 17 0 9 0;
#X connect 18 0 11 0;
#X connect 19 0 13 0;
#X connect 20 0 21 0;
#X connect 21 0 5 0;
#X connect 22 0 0 0;
#X connect 22 0 0 1;
