#N canvas 4 0 1920 1016 12;
#X obj 220 7 loadbang;
#X msg 220 55 375;
#X obj 162 79 tgl 19 0 empty empty empty 0 -10 0 12 #fcfcfc #000000 #000000 0 1;
#X obj 165 133 metro;
#X obj 167 257 bng 19 250 50 0 empty empty empty 0 -10 0 12 #fcfcfc #000000 #000000;
#X obj -18 133 loadbang;
#X obj 78 133 sel 0;
#X obj 79 208 bng 19 250 50 0 empty empty empty 0 -10 0 12 #fcfcfc #000000 #000000;
#X msg 79 256 -1;
#X obj 167 304 int 1, f 6;
#X text 29 210 Reset;
#X obj 254 361 + 1;
#X obj 167 408 % 8;
#X obj 167 456 + 1;
#X floatatom 167 504 5 0 0 0 - - - 0;
#X obj -49 549 sel 1;
#X obj 24 549 sel 2;
#X obj 106 549 sel 3;
#X obj 179 549 sel 4;
#X obj 253 549 sel 5;
#X obj 326 549 sel 6;
#X obj 383 546 sel 7;
#X obj 462 546 sel 8;
#X obj -49 597 bng 19 250 50 0 empty empty empty 0 -10 0 12 #fcfcfc #000000 #000000;
#X obj 24 597 bng 19 250 50 0 empty empty empty 0 -10 0 12 #fcfcfc #000000 #000000;
#X obj 106 597 bng 19 250 50 0 empty empty empty 0 -10 0 12 #fcfcfc #000000 #000000;
#X obj 179 597 bng 19 250 50 0 empty empty empty 0 -10 0 12 #fcfcfc #000000 #000000;
#X obj 253 597 bng 19 250 50 0 empty empty empty 0 -10 0 12 #fcfcfc #000000 #000000;
#X obj 326 597 bng 19 250 50 0 empty empty empty 0 -10 0 12 #fcfcfc #000000 #000000;
#X obj 391 594 bng 19 250 50 0 empty empty empty 0 -10 0 12 #fcfcfc #000000 #000000;
#X obj 462 594 bng 19 250 50 0 empty empty empty 0 -10 0 12 #fcfcfc #000000 #000000;
#X obj -48 635 s One;
#X obj 23 642 s Two;
#X obj 100 639 s Three;
#X obj 179 640 s Four;
#X obj 254 638 s Five;
#X obj 327 639 s Six;
#X obj 389 639 s Seven;
#X obj 464 640 s Eight;
#X floatatom 167 361 5 0 0 0 - - - 0;
#X obj 973 265 receive One;
#X obj 1061 264 receive Two;
#X obj 1148 261 receive Three;
#X obj 1249 261 receive Four;
#X obj 1343 261 receive Five;
#X obj 972 308 bng 19 250 50 0 empty empty empty 0 -10 0 12 #fcfcfc #000000 #000000;
#X obj 1018 307 tgl 19 0 empty empty empty 0 -10 0 12 #fcfcfc #000000 #000000 0 1;
#X obj 974 352 spigot;
#X obj 973 389 bng 19 250 50 0 empty empty empty 0 -10 0 12 #fcfcfc #000000 #000000;
#X obj 1063 308 bng 19 250 50 0 empty empty empty 0 -10 0 12 #fcfcfc #000000 #000000;
#X obj 1109 307 tgl 19 0 empty empty empty 0 -10 0 12 #fcfcfc #000000 #000000 0 1;
#X obj 1065 352 spigot;
#X obj 1064 389 bng 19 250 50 0 empty empty empty 0 -10 0 12 #fcfcfc #000000 #000000;
#X obj 1160 306 bng 19 250 50 0 empty empty empty 0 -10 0 12 #fcfcfc #000000 #000000;
#X obj 1206 305 tgl 19 0 empty empty empty 0 -10 0 12 #fcfcfc #000000 #000000 0 1;
#X obj 1162 350 spigot;
#X obj 1161 387 bng 19 250 50 0 empty empty empty 0 -10 0 12 #fcfcfc #000000 #000000;
#X obj 1251 306 bng 19 250 50 0 empty empty empty 0 -10 0 12 #fcfcfc #000000 #000000;
#X obj 1297 305 tgl 19 0 empty empty empty 0 -10 0 12 #fcfcfc #000000 #000000 0 1;
#X obj 1253 350 spigot;
#X obj 1252 387 bng 19 250 50 0 empty empty empty 0 -10 0 12 #fcfcfc #000000 #000000;
#X obj 1444 261 receive Six;
#X obj 1540 260 receive Seven;
#X obj 1649 260 receive Eight;
#X obj 1353 305 bng 19 250 50 0 empty empty empty 0 -10 0 12 #fcfcfc #000000 #000000;
#X obj 1399 304 tgl 19 0 empty empty empty 0 -10 0 12 #fcfcfc #000000 #000000 0 1;
#X obj 1355 349 spigot;
#X obj 1354 386 bng 19 250 50 0 empty empty empty 0 -10 0 12 #fcfcfc #000000 #000000;
#X obj 1444 305 bng 19 250 50 0 empty empty empty 0 -10 0 12 #fcfcfc #000000 #000000;
#X obj 1490 304 tgl 19 0 empty empty empty 0 -10 0 12 #fcfcfc #000000 #000000 0 1;
#X obj 1446 349 spigot;
#X obj 1445 386 bng 19 250 50 0 empty empty empty 0 -10 0 12 #fcfcfc #000000 #000000;
#X obj 1545 307 bng 19 250 50 0 empty empty empty 0 -10 0 12 #fcfcfc #000000 #000000;
#X obj 1591 306 tgl 19 0 empty empty empty 0 -10 0 12 #fcfcfc #000000 #000000 0 1;
#X obj 1547 351 spigot;
#X obj 1546 388 bng 19 250 50 0 empty empty empty 0 -10 0 12 #fcfcfc #000000 #000000;
#X obj 1654 305 bng 19 250 50 0 empty empty empty 0 -10 0 12 #fcfcfc #000000 #000000;
#X obj 1700 304 tgl 19 0 empty empty empty 0 -10 0 12 #fcfcfc #000000 #000000 0 1;
#X obj 1656 349 spigot;
#X obj 1655 386 bng 19 250 50 0 empty empty empty 0 -10 0 12 #fcfcfc #000000 #000000;
#X obj 697 565 receive Note;
#X obj 699 612 bng 19 250 50 0 empty empty empty 0 -10 0 12 #fcfcfc #000000 #000000;
#X obj 696 717 readsf~;
#X obj 700 765 *~ 0.5;
#X obj 698 817 dac~;
#X msg 701 669 open note.wav \, 1;
#X obj 434 18 loadbang;
#X msg 3182 30 0;
#X obj 722 20 notein;
#X obj 722 65 stripnote;
#X obj 1275 60 sel 1 2 3 4 5 6 7 8;
#X obj 243 494 v current_step;
#X obj 1592 125 v current_step;
#X msg 1149 90 1;
#X msg 1197 91 1;
#X msg 1247 91 1;
#X msg 1295 90 1;
#X msg 1346 91 1;
#X msg 1396 93 1;
#X msg 1444 92 1;
#X msg 1492 91 1;
#X floatatom 219 107 5 0 0 0 - - - 0;
#X text 1212 652 C3;
#X obj 1271 715 makenote;
#X msg 1361 716 1, f 4;
#X obj 1287 772 noteout;
#X msg 1244 649 60;
#X text 259 104 Note Length(ms);
#X floatatom 301 188 5 0 0 0 - - - 0;
#X obj 301 143 expr 60000/($f1*2);
#X text 341 188 BPM;
#X obj 460 142 * 0.95;
#X obj 1294 473 send C3;
#X obj 1285 532 receive C3;
#X obj 1282 575 t b b b b b;
#X obj 1298 814 bng 19 250 50 0 empty empty empty 0 -10 0 12 #fcfcfc #000000 #000000;
#X obj 1318 650 f;
#X obj 459 219 s note_length;
#X obj 1299 613 r note_length;
#X floatatom 458 183 5 0 0 0 - - - 0;
#X msg 1285 649 100;
#X obj 721 99 unpack f f;
#X obj 668 147 route 60 62 64 65 67 69 71 72;
#X text 761 622 Playing wav files.;
#X obj 668 183 s track_C3;
#X obj 669 217 s track_D3;
#X obj 668 252 s track_E3;
#X obj 668 289 s track_F3;
#X obj 668 327 s track_G3;
#X obj 666 364 s track_A3;
#X obj 666 400 s track_B3;
#X obj 668 437 s track_C4;
#X obj 1596 24 r track_C3;
#X obj 1591 74 t b;
#X obj 989 166 v C3_step1;
#X obj 1074 166 v C3_step2;
#X obj 1165 166 v C3_step3;
#X obj 1249 167 v C3_step4;
#X obj 1324 168 v C3_step5;
#X obj 1402 169 v C3_step6;
#X obj 1490 169 v C3_step7;
#X obj 1576 169 v C3_step8;
#X text 123 77 START;
#X obj 1825 260 receive One;
#X obj 1913 259 receive Two;
#X obj 2000 256 receive Three;
#X obj 2101 256 receive Four;
#X obj 2195 256 receive Five;
#X obj 1824 303 bng 19 250 50 0 empty empty empty 0 -10 0 12 #fcfcfc #000000 #000000;
#X obj 1870 302 tgl 19 0 empty empty empty 0 -10 0 12 #fcfcfc #000000 #000000 0 1;
#X obj 1826 347 spigot;
#X obj 1825 384 bng 19 250 50 0 empty empty empty 0 -10 0 12 #fcfcfc #000000 #000000;
#X obj 1915 303 bng 19 250 50 0 empty empty empty 0 -10 0 12 #fcfcfc #000000 #000000;
#X obj 1961 302 tgl 19 0 empty empty empty 0 -10 0 12 #fcfcfc #000000 #000000 0 1;
#X obj 1917 347 spigot;
#X obj 1916 384 bng 19 250 50 0 empty empty empty 0 -10 0 12 #fcfcfc #000000 #000000;
#X obj 2012 301 bng 19 250 50 0 empty empty empty 0 -10 0 12 #fcfcfc #000000 #000000;
#X obj 2058 300 tgl 19 0 empty empty empty 0 -10 0 12 #fcfcfc #000000 #000000 0 1;
#X obj 2014 345 spigot;
#X obj 2013 382 bng 19 250 50 0 empty empty empty 0 -10 0 12 #fcfcfc #000000 #000000;
#X obj 2103 301 bng 19 250 50 0 empty empty empty 0 -10 0 12 #fcfcfc #000000 #000000;
#X obj 2149 300 tgl 19 0 empty empty empty 0 -10 0 12 #fcfcfc #000000 #000000 0 1;
#X obj 2105 345 spigot;
#X obj 2104 382 bng 19 250 50 0 empty empty empty 0 -10 0 12 #fcfcfc #000000 #000000;
#X obj 2296 256 receive Six;
#X obj 2392 255 receive Seven;
#X obj 2501 255 receive Eight;
#X obj 2205 300 bng 19 250 50 0 empty empty empty 0 -10 0 12 #fcfcfc #000000 #000000;
#X obj 2251 299 tgl 19 0 empty empty empty 0 -10 0 12 #fcfcfc #000000 #000000 0 1;
#X obj 2207 344 spigot;
#X obj 2206 381 bng 19 250 50 0 empty empty empty 0 -10 0 12 #fcfcfc #000000 #000000;
#X obj 2296 300 bng 19 250 50 0 empty empty empty 0 -10 0 12 #fcfcfc #000000 #000000;
#X obj 2342 299 tgl 19 0 empty empty empty 0 -10 0 12 #fcfcfc #000000 #000000 0 1;
#X obj 2298 344 spigot;
#X obj 2297 381 bng 19 250 50 0 empty empty empty 0 -10 0 12 #fcfcfc #000000 #000000;
#X obj 2397 302 bng 19 250 50 0 empty empty empty 0 -10 0 12 #fcfcfc #000000 #000000;
#X obj 2443 301 tgl 19 0 empty empty empty 0 -10 0 12 #fcfcfc #000000 #000000 0 1;
#X obj 2399 346 spigot;
#X obj 2398 383 bng 19 250 50 0 empty empty empty 0 -10 0 12 #fcfcfc #000000 #000000;
#X obj 2506 300 bng 19 250 50 0 empty empty empty 0 -10 0 12 #fcfcfc #000000 #000000;
#X obj 2552 299 tgl 19 0 empty empty empty 0 -10 0 12 #fcfcfc #000000 #000000 0 1;
#X obj 2508 344 spigot;
#X obj 2507 381 bng 19 250 50 0 empty empty empty 0 -10 0 12 #fcfcfc #000000 #000000;
#X obj 2127 55 sel 1 2 3 4 5 6 7 8;
#X obj 2444 120 v current_step;
#X msg 2001 85 1;
#X msg 2049 86 1;
#X msg 2099 86 1;
#X msg 2147 85 1;
#X msg 2198 86 1;
#X msg 2248 88 1;
#X msg 2296 87 1;
#X msg 2344 86 1;
#X obj 2443 69 t b;
#X obj 1841 161 v D3_step1;
#X obj 1926 161 v D3_step2;
#X obj 2017 161 v D3_step3;
#X obj 2101 162 v D3_step4;
#X obj 2176 163 v D3_step5;
#X obj 2254 164 v D3_step6;
#X obj 2342 164 v D3_step7;
#X obj 2428 164 v D3_step8;
#X obj 2448 19 r track_D3;
#X obj 2146 468 send D3;
#X obj 2125 700 makenote;
#X msg 2215 701 1, f 4;
#X obj 2141 757 noteout;
#X obj 2136 560 t b b b b b;
#X obj 2152 799 bng 19 250 50 0 empty empty empty 0 -10 0 12 #fcfcfc #000000 #000000;
#X obj 2172 635 f;
#X obj 2153 598 r note_length;
#X msg 2139 634 100;
#X text 2066 637 D3;
#X obj 2139 517 receive D3;
#X msg 2098 634 62;
#X obj 2645 255 receive One;
#X obj 2733 254 receive Two;
#X obj 2820 251 receive Three;
#X obj 2921 251 receive Four;
#X obj 3015 251 receive Five;
#X obj 2644 298 bng 19 250 50 0 empty empty empty 0 -10 0 12 #fcfcfc #000000 #000000;
#X obj 2690 297 tgl 19 0 empty empty empty 0 -10 0 12 #fcfcfc #000000 #000000 0 1;
#X obj 2646 342 spigot;
#X obj 2645 379 bng 19 250 50 0 empty empty empty 0 -10 0 12 #fcfcfc #000000 #000000;
#X obj 2735 298 bng 19 250 50 0 empty empty empty 0 -10 0 12 #fcfcfc #000000 #000000;
#X obj 2781 297 tgl 19 0 empty empty empty 0 -10 0 12 #fcfcfc #000000 #000000 0 1;
#X obj 2737 342 spigot;
#X obj 2736 379 bng 19 250 50 0 empty empty empty 0 -10 0 12 #fcfcfc #000000 #000000;
#X obj 2832 296 bng 19 250 50 0 empty empty empty 0 -10 0 12 #fcfcfc #000000 #000000;
#X obj 2878 295 tgl 19 0 empty empty empty 0 -10 0 12 #fcfcfc #000000 #000000 0 1;
#X obj 2834 340 spigot;
#X obj 2833 377 bng 19 250 50 0 empty empty empty 0 -10 0 12 #fcfcfc #000000 #000000;
#X obj 2923 296 bng 19 250 50 0 empty empty empty 0 -10 0 12 #fcfcfc #000000 #000000;
#X obj 2969 295 tgl 19 0 empty empty empty 0 -10 0 12 #fcfcfc #000000 #000000 0 1;
#X obj 2925 340 spigot;
#X obj 2924 377 bng 19 250 50 0 empty empty empty 0 -10 0 12 #fcfcfc #000000 #000000;
#X obj 3116 251 receive Six;
#X obj 3212 250 receive Seven;
#X obj 3321 250 receive Eight;
#X obj 3025 295 bng 19 250 50 0 empty empty empty 0 -10 0 12 #fcfcfc #000000 #000000;
#X obj 3071 294 tgl 19 0 empty empty empty 0 -10 0 12 #fcfcfc #000000 #000000 0 1;
#X obj 3027 339 spigot;
#X obj 3026 376 bng 19 250 50 0 empty empty empty 0 -10 0 12 #fcfcfc #000000 #000000;
#X obj 3116 295 bng 19 250 50 0 empty empty empty 0 -10 0 12 #fcfcfc #000000 #000000;
#X obj 3162 294 tgl 19 0 empty empty empty 0 -10 0 12 #fcfcfc #000000 #000000 0 1;
#X obj 3118 339 spigot;
#X obj 3117 376 bng 19 250 50 0 empty empty empty 0 -10 0 12 #fcfcfc #000000 #000000;
#X obj 3217 297 bng 19 250 50 0 empty empty empty 0 -10 0 12 #fcfcfc #000000 #000000;
#X obj 3263 296 tgl 19 0 empty empty empty 0 -10 0 12 #fcfcfc #000000 #000000 0 1;
#X obj 3219 341 spigot;
#X obj 3218 378 bng 19 250 50 0 empty empty empty 0 -10 0 12 #fcfcfc #000000 #000000;
#X obj 3326 295 bng 19 250 50 0 empty empty empty 0 -10 0 12 #fcfcfc #000000 #000000;
#X obj 3372 294 tgl 19 0 empty empty empty 0 -10 0 12 #fcfcfc #000000 #000000 0 1;
#X obj 3328 339 spigot;
#X obj 3327 376 bng 19 250 50 0 empty empty empty 0 -10 0 12 #fcfcfc #000000 #000000;
#X obj 2947 50 sel 1 2 3 4 5 6 7 8;
#X obj 3264 115 v current_step;
#X msg 2821 80 1;
#X msg 2869 81 1;
#X msg 2919 81 1;
#X msg 2967 80 1;
#X msg 3018 81 1;
#X msg 3068 83 1;
#X msg 3116 82 1;
#X msg 3164 81 1;
#X obj 3263 64 t b;
#X obj 2945 695 makenote;
#X msg 3035 696 1, f 4;
#X obj 2964 749 noteout;
#X obj 2956 555 t b b b b b;
#X obj 2972 794 bng 19 250 50 0 empty empty empty 0 -10 0 12 #fcfcfc #000000 #000000;
#X obj 2992 630 f;
#X obj 2973 593 r note_length;
#X msg 2959 629 100;
#X text 2886 632 E3;
#X obj 2966 463 send E3;
#X obj 2959 512 receive E3;
#X obj 3268 14 r track_E3;
#X obj 2661 156 v E3_step1;
#X obj 2746 156 v E3_step2;
#X obj 2837 156 v E3_step3;
#X obj 2918 158 v E3_step4;
#X obj 2996 158 v E3_step5;
#X obj 3074 159 v E3_step6;
#X obj 3162 159 v E3_step7;
#X obj 3248 159 v E3_step8;
#X msg 2918 629 64;
#X obj 3448 248 receive One;
#X obj 3536 247 receive Two;
#X obj 3623 244 receive Three;
#X obj 3724 244 receive Four;
#X obj 3818 244 receive Five;
#X obj 3447 291 bng 19 250 50 0 empty empty empty 0 -10 0 12 #fcfcfc #000000 #000000;
#X obj 3493 290 tgl 19 0 empty empty empty 0 -10 0 12 #fcfcfc #000000 #000000 0 1;
#X obj 3449 335 spigot;
#X obj 3448 372 bng 19 250 50 0 empty empty empty 0 -10 0 12 #fcfcfc #000000 #000000;
#X obj 3538 291 bng 19 250 50 0 empty empty empty 0 -10 0 12 #fcfcfc #000000 #000000;
#X obj 3584 290 tgl 19 0 empty empty empty 0 -10 0 12 #fcfcfc #000000 #000000 0 1;
#X obj 3540 335 spigot;
#X obj 3539 372 bng 19 250 50 0 empty empty empty 0 -10 0 12 #fcfcfc #000000 #000000;
#X obj 3635 289 bng 19 250 50 0 empty empty empty 0 -10 0 12 #fcfcfc #000000 #000000;
#X obj 3681 288 tgl 19 0 empty empty empty 0 -10 0 12 #fcfcfc #000000 #000000 0 1;
#X obj 3637 333 spigot;
#X obj 3636 370 bng 19 250 50 0 empty empty empty 0 -10 0 12 #fcfcfc #000000 #000000;
#X obj 3726 289 bng 19 250 50 0 empty empty empty 0 -10 0 12 #fcfcfc #000000 #000000;
#X obj 3772 288 tgl 19 0 empty empty empty 0 -10 0 12 #fcfcfc #000000 #000000 0 1;
#X obj 3728 333 spigot;
#X obj 3727 370 bng 19 250 50 0 empty empty empty 0 -10 0 12 #fcfcfc #000000 #000000;
#X obj 3919 244 receive Six;
#X obj 4015 243 receive Seven;
#X obj 4124 243 receive Eight;
#X obj 3828 288 bng 19 250 50 0 empty empty empty 0 -10 0 12 #fcfcfc #000000 #000000;
#X obj 3874 287 tgl 19 0 empty empty empty 0 -10 0 12 #fcfcfc #000000 #000000 0 1;
#X obj 3830 332 spigot;
#X obj 3829 369 bng 19 250 50 0 empty empty empty 0 -10 0 12 #fcfcfc #000000 #000000;
#X obj 3919 288 bng 19 250 50 0 empty empty empty 0 -10 0 12 #fcfcfc #000000 #000000;
#X obj 3965 287 tgl 19 0 empty empty empty 0 -10 0 12 #fcfcfc #000000 #000000 0 1;
#X obj 3921 332 spigot;
#X obj 3920 369 bng 19 250 50 0 empty empty empty 0 -10 0 12 #fcfcfc #000000 #000000;
#X obj 4020 290 bng 19 250 50 0 empty empty empty 0 -10 0 12 #fcfcfc #000000 #000000;
#X obj 4066 289 tgl 19 0 empty empty empty 0 -10 0 12 #fcfcfc #000000 #000000 0 1;
#X obj 4022 334 spigot;
#X obj 4021 371 bng 19 250 50 0 empty empty empty 0 -10 0 12 #fcfcfc #000000 #000000;
#X obj 4129 288 bng 19 250 50 0 empty empty empty 0 -10 0 12 #fcfcfc #000000 #000000;
#X obj 4175 287 tgl 19 0 empty empty empty 0 -10 0 12 #fcfcfc #000000 #000000 0 1;
#X obj 4131 332 spigot;
#X obj 4130 369 bng 19 250 50 0 empty empty empty 0 -10 0 12 #fcfcfc #000000 #000000;
#X obj 3750 43 sel 1 2 3 4 5 6 7 8;
#X obj 4067 108 v current_step;
#X msg 3624 73 1;
#X msg 3672 74 1;
#X msg 3722 74 1;
#X msg 3770 73 1;
#X msg 3821 74 1;
#X msg 3871 76 1;
#X msg 3919 75 1;
#X msg 3967 74 1;
#X obj 4066 57 t b;
#X obj 3732 690 makenote;
#X msg 3838 689 1, f 4;
#X obj 3767 742 noteout;
#X obj 3759 548 t b b b b b;
#X obj 3775 787 bng 19 250 50 0 empty empty empty 0 -10 0 12 #fcfcfc #000000 #000000;
#X obj 3795 623 f;
#X obj 3776 586 r note_length;
#X msg 3762 622 100;
#X obj 3769 456 send F3;
#X obj 3762 505 receive F3;
#X msg 3721 622 65;
#X text 3689 625 F3;
#X obj 4071 7 r track_F3;
#X obj 3464 149 v F3_step1;
#X obj 3549 149 v F3_step2;
#X obj 3640 149 v F3_step3;
#X obj 3722 150 v F3_step4;
#X obj 3799 151 v F3_step5;
#X obj 3877 152 v F3_step6;
#X obj 3965 152 v F3_step7;
#X obj 4051 152 v F3_step8;
#X obj 4254 244 receive One;
#X obj 4342 243 receive Two;
#X obj 4429 240 receive Three;
#X obj 4530 240 receive Four;
#X obj 4624 240 receive Five;
#X obj 4253 287 bng 19 250 50 0 empty empty empty 0 -10 0 12 #fcfcfc #000000 #000000;
#X obj 4299 286 tgl 19 0 empty empty empty 0 -10 0 12 #fcfcfc #000000 #000000 0 1;
#X obj 4255 331 spigot;
#X obj 4254 368 bng 19 250 50 0 empty empty empty 0 -10 0 12 #fcfcfc #000000 #000000;
#X obj 4344 287 bng 19 250 50 0 empty empty empty 0 -10 0 12 #fcfcfc #000000 #000000;
#X obj 4390 286 tgl 19 0 empty empty empty 0 -10 0 12 #fcfcfc #000000 #000000 0 1;
#X obj 4346 331 spigot;
#X obj 4345 368 bng 19 250 50 0 empty empty empty 0 -10 0 12 #fcfcfc #000000 #000000;
#X obj 4441 285 bng 19 250 50 0 empty empty empty 0 -10 0 12 #fcfcfc #000000 #000000;
#X obj 4487 284 tgl 19 0 empty empty empty 0 -10 0 12 #fcfcfc #000000 #000000 0 1;
#X obj 4443 329 spigot;
#X obj 4442 366 bng 19 250 50 0 empty empty empty 0 -10 0 12 #fcfcfc #000000 #000000;
#X obj 4532 285 bng 19 250 50 0 empty empty empty 0 -10 0 12 #fcfcfc #000000 #000000;
#X obj 4578 284 tgl 19 0 empty empty empty 0 -10 0 12 #fcfcfc #000000 #000000 0 1;
#X obj 4534 329 spigot;
#X obj 4533 366 bng 19 250 50 0 empty empty empty 0 -10 0 12 #fcfcfc #000000 #000000;
#X obj 4725 240 receive Six;
#X obj 4821 239 receive Seven;
#X obj 4930 239 receive Eight;
#X obj 4634 284 bng 19 250 50 0 empty empty empty 0 -10 0 12 #fcfcfc #000000 #000000;
#X obj 4680 283 tgl 19 0 empty empty empty 0 -10 0 12 #fcfcfc #000000 #000000 0 1;
#X obj 4636 328 spigot;
#X obj 4635 365 bng 19 250 50 0 empty empty empty 0 -10 0 12 #fcfcfc #000000 #000000;
#X obj 4725 284 bng 19 250 50 0 empty empty empty 0 -10 0 12 #fcfcfc #000000 #000000;
#X obj 4771 283 tgl 19 0 empty empty empty 0 -10 0 12 #fcfcfc #000000 #000000 0 1;
#X obj 4727 328 spigot;
#X obj 4726 365 bng 19 250 50 0 empty empty empty 0 -10 0 12 #fcfcfc #000000 #000000;
#X obj 4826 286 bng 19 250 50 0 empty empty empty 0 -10 0 12 #fcfcfc #000000 #000000;
#X obj 4872 285 tgl 19 0 empty empty empty 0 -10 0 12 #fcfcfc #000000 #000000 0 1;
#X obj 4828 330 spigot;
#X obj 4827 367 bng 19 250 50 0 empty empty empty 0 -10 0 12 #fcfcfc #000000 #000000;
#X obj 4935 284 bng 19 250 50 0 empty empty empty 0 -10 0 12 #fcfcfc #000000 #000000;
#X obj 4981 283 tgl 19 0 empty empty empty 0 -10 0 12 #fcfcfc #000000 #000000 0 1;
#X obj 4937 328 spigot;
#X obj 4936 365 bng 19 250 50 0 empty empty empty 0 -10 0 12 #fcfcfc #000000 #000000;
#X obj 4556 39 sel 1 2 3 4 5 6 7 8;
#X obj 4873 104 v current_step;
#X msg 4430 69 1;
#X msg 4478 70 1;
#X msg 4528 70 1;
#X msg 4576 69 1;
#X msg 4627 70 1;
#X msg 4677 72 1;
#X msg 4725 71 1;
#X msg 4773 70 1;
#X obj 4872 53 t b;
#X obj 4538 686 makenote;
#X msg 4644 685 1, f 4;
#X obj 4575 736 noteout;
#X obj 4565 544 t b b b b b;
#X obj 4581 783 bng 19 250 50 0 empty empty empty 0 -10 0 12 #fcfcfc #000000 #000000;
#X obj 4601 619 f;
#X obj 4582 582 r note_length;
#X msg 4568 618 100;
#X obj 4877 3 r track_G3;
#X obj 4270 145 v G3_step1;
#X obj 4355 145 v G3_step2;
#X obj 4446 145 v G3_step3;
#X obj 4528 146 v G3_step4;
#X obj 4605 147 v G3_step5;
#X obj 4683 148 v G3_step6;
#X obj 4771 148 v G3_step7;
#X obj 4857 148 v G3_step8;
#X obj 4575 452 send G3;
#X obj 4568 501 receive G3;
#X msg 4527 618 67;
#X text 4495 621 G3;
#X connect 0 0 1 0;
#X connect 1 0 101 0;
#X connect 2 0 3 0;
#X connect 2 0 6 0;
#X connect 3 0 4 0;
#X connect 4 0 9 0;
#X connect 5 0 7 0;
#X connect 6 0 7 0;
#X connect 7 0 8 0;
#X connect 7 0 87 0;
#X connect 8 0 9 0;
#X connect 9 0 39 0;
#X connect 9 0 11 0;
#X connect 11 0 9 1;
#X connect 12 0 13 0;
#X connect 13 0 14 0;
#X connect 14 0 15 0;
#X connect 14 0 16 0;
#X connect 14 0 17 0;
#X connect 14 0 18 0;
#X connect 14 0 19 0;
#X connect 14 0 20 0;
#X connect 14 0 21 0;
#X connect 14 0 22 0;
#X connect 14 0 91 0;
#X connect 15 0 23 0;
#X connect 16 0 24 0;
#X connect 17 0 25 0;
#X connect 18 0 26 0;
#X connect 19 0 27 0;
#X connect 20 0 28 0;
#X connect 21 0 29 0;
#X connect 22 0 30 0;
#X connect 23 0 31 0;
#X connect 24 0 32 0;
#X connect 25 0 33 0;
#X connect 26 0 34 0;
#X connect 27 0 35 0;
#X connect 28 0 36 0;
#X connect 29 0 37 0;
#X connect 30 0 38 0;
#X connect 39 0 12 0;
#X connect 40 0 45 0;
#X connect 40 0 134 0;
#X connect 41 0 49 0;
#X connect 41 0 135 0;
#X connect 42 0 53 0;
#X connect 42 0 136 0;
#X connect 43 0 57 0;
#X connect 43 0 137 0;
#X connect 44 0 64 0;
#X connect 44 0 138 0;
#X connect 45 0 47 0;
#X connect 46 0 47 1;
#X connect 47 0 48 0;
#X connect 48 0 112 0;
#X connect 49 0 51 0;
#X connect 50 0 51 1;
#X connect 51 0 52 0;
#X connect 52 0 112 0;
#X connect 53 0 55 0;
#X connect 54 0 55 1;
#X connect 55 0 56 0;
#X connect 56 0 112 0;
#X connect 57 0 59 0;
#X connect 58 0 59 1;
#X connect 59 0 60 0;
#X connect 60 0 112 0;
#X connect 61 0 68 0;
#X connect 61 0 139 0;
#X connect 62 0 72 0;
#X connect 62 0 140 0;
#X connect 63 0 76 0;
#X connect 63 0 141 0;
#X connect 64 0 66 0;
#X connect 65 0 66 1;
#X connect 66 0 67 0;
#X connect 67 0 112 0;
#X connect 68 0 70 0;
#X connect 69 0 70 1;
#X connect 70 0 71 0;
#X connect 71 0 112 0;
#X connect 72 0 74 0;
#X connect 73 0 74 1;
#X connect 74 0 75 0;
#X connect 75 0 112 0;
#X connect 76 0 78 0;
#X connect 77 0 78 1;
#X connect 78 0 79 0;
#X connect 79 0 112 0;
#X connect 86 0 87 0;
#X connect 87 0 134 0;
#X connect 87 0 135 0;
#X connect 87 0 136 0;
#X connect 87 0 137 0;
#X connect 87 0 138 0;
#X connect 87 0 139 0;
#X connect 87 0 140 0;
#X connect 87 0 141 0;
#X connect 87 0 194 0;
#X connect 87 0 195 0;
#X connect 87 0 196 0;
#X connect 87 0 197 0;
#X connect 87 0 198 0;
#X connect 87 0 199 0;
#X connect 87 0 200 0;
#X connect 87 0 201 0;
#X connect 87 0 278 0;
#X connect 87 0 279 0;
#X connect 87 0 280 0;
#X connect 87 0 281 0;
#X connect 87 0 282 0;
#X connect 87 0 283 0;
#X connect 87 0 284 0;
#X connect 87 0 285 0;
#X connect 87 0 351 0;
#X connect 87 0 352 0;
#X connect 87 0 353 0;
#X connect 87 0 354 0;
#X connect 87 0 355 0;
#X connect 87 0 356 0;
#X connect 87 0 357 0;
#X connect 87 0 358 0;
#X connect 87 0 419 0;
#X connect 87 0 420 0;
#X connect 87 0 421 0;
#X connect 87 0 422 0;
#X connect 87 0 423 0;
#X connect 87 0 424 0;
#X connect 87 0 425 0;
#X connect 87 0 426 0;
#X connect 88 0 89 0;
#X connect 88 1 89 1;
#X connect 89 0 121 0;
#X connect 90 0 93 0;
#X connect 90 1 94 0;
#X connect 90 2 95 0;
#X connect 90 3 96 0;
#X connect 90 4 97 0;
#X connect 90 5 98 0;
#X connect 90 6 99 0;
#X connect 90 7 100 0;
#X connect 92 0 90 0;
#X connect 93 0 134 0;
#X connect 94 0 135 0;
#X connect 95 0 136 0;
#X connect 96 0 137 0;
#X connect 97 0 138 0;
#X connect 98 0 139 0;
#X connect 99 0 140 0;
#X connect 100 0 141 0;
#X connect 101 0 3 1;
#X connect 101 0 109 0;
#X connect 101 0 111 0;
#X connect 103 0 105 0;
#X connect 103 1 105 1;
#X connect 104 0 105 2;
#X connect 106 0 103 0;
#X connect 109 0 108 0;
#X connect 111 0 119 0;
#X connect 113 0 114 0;
#X connect 114 0 106 0;
#X connect 114 1 104 0;
#X connect 114 2 120 0;
#X connect 114 3 115 0;
#X connect 114 4 116 0;
#X connect 116 0 103 2;
#X connect 118 0 116 1;
#X connect 119 0 117 0;
#X connect 120 0 103 1;
#X connect 121 0 122 0;
#X connect 122 0 124 0;
#X connect 122 1 125 0;
#X connect 122 2 126 0;
#X connect 122 3 127 0;
#X connect 122 4 128 0;
#X connect 122 5 129 0;
#X connect 122 6 130 0;
#X connect 122 7 131 0;
#X connect 132 0 133 0;
#X connect 133 0 92 0;
#X connect 134 0 47 1;
#X connect 134 0 46 0;
#X connect 135 0 51 1;
#X connect 135 0 50 0;
#X connect 136 0 55 1;
#X connect 136 0 54 0;
#X connect 137 0 59 1;
#X connect 137 0 58 0;
#X connect 138 0 66 1;
#X connect 138 0 65 0;
#X connect 139 0 70 1;
#X connect 139 0 69 0;
#X connect 140 0 74 1;
#X connect 140 0 73 0;
#X connect 141 0 78 1;
#X connect 141 0 77 0;
#X connect 143 0 148 0;
#X connect 143 0 194 0;
#X connect 144 0 152 0;
#X connect 144 0 195 0;
#X connect 145 0 156 0;
#X connect 145 0 196 0;
#X connect 146 0 160 0;
#X connect 146 0 197 0;
#X connect 147 0 167 0;
#X connect 147 0 198 0;
#X connect 148 0 150 0;
#X connect 149 0 150 1;
#X connect 150 0 151 0;
#X connect 151 0 203 0;
#X connect 152 0 154 0;
#X connect 153 0 154 1;
#X connect 154 0 155 0;
#X connect 155 0 203 0;
#X connect 156 0 158 0;
#X connect 157 0 158 1;
#X connect 158 0 159 0;
#X connect 159 0 203 0;
#X connect 160 0 162 0;
#X connect 161 0 162 1;
#X connect 162 0 163 0;
#X connect 163 0 203 0;
#X connect 164 0 171 0;
#X connect 164 0 199 0;
#X connect 165 0 175 0;
#X connect 165 0 200 0;
#X connect 166 0 179 0;
#X connect 166 0 201 0;
#X connect 167 0 169 0;
#X connect 168 0 169 1;
#X connect 169 0 170 0;
#X connect 170 0 203 0;
#X connect 171 0 173 0;
#X connect 172 0 173 1;
#X connect 173 0 174 0;
#X connect 174 0 203 0;
#X connect 175 0 177 0;
#X connect 176 0 177 1;
#X connect 177 0 178 0;
#X connect 178 0 203 0;
#X connect 179 0 181 0;
#X connect 180 0 181 1;
#X connect 181 0 182 0;
#X connect 182 0 203 0;
#X connect 183 0 185 0;
#X connect 183 1 186 0;
#X connect 183 2 187 0;
#X connect 183 3 188 0;
#X connect 183 4 189 0;
#X connect 183 5 190 0;
#X connect 183 6 191 0;
#X connect 183 7 192 0;
#X connect 184 0 183 0;
#X connect 185 0 194 0;
#X connect 186 0 195 0;
#X connect 187 0 196 0;
#X connect 188 0 197 0;
#X connect 189 0 198 0;
#X connect 190 0 199 0;
#X connect 191 0 200 0;
#X connect 192 0 201 0;
#X connect 193 0 184 0;
#X connect 194 0 150 1;
#X connect 194 0 149 0;
#X connect 195 0 154 1;
#X connect 195 0 153 0;
#X connect 196 0 158 1;
#X connect 196 0 157 0;
#X connect 197 0 162 1;
#X connect 197 0 161 0;
#X connect 198 0 169 1;
#X connect 198 0 168 0;
#X connect 199 0 173 1;
#X connect 199 0 172 0;
#X connect 200 0 177 1;
#X connect 200 0 176 0;
#X connect 201 0 181 1;
#X connect 201 0 180 0;
#X connect 202 0 193 0;
#X connect 204 0 206 0;
#X connect 204 1 206 1;
#X connect 205 0 206 2;
#X connect 207 0 214 0;
#X connect 207 1 205 0;
#X connect 207 2 211 0;
#X connect 207 3 208 0;
#X connect 207 4 209 0;
#X connect 209 0 204 2;
#X connect 210 0 209 1;
#X connect 211 0 204 1;
#X connect 213 0 207 0;
#X connect 214 0 204 0;
#X connect 215 0 220 0;
#X connect 215 0 278 0;
#X connect 216 0 224 0;
#X connect 216 0 279 0;
#X connect 217 0 228 0;
#X connect 217 0 280 0;
#X connect 218 0 232 0;
#X connect 218 0 281 0;
#X connect 219 0 239 0;
#X connect 219 0 282 0;
#X connect 220 0 222 0;
#X connect 221 0 222 1;
#X connect 222 0 223 0;
#X connect 223 0 275 0;
#X connect 224 0 226 0;
#X connect 225 0 226 1;
#X connect 226 0 227 0;
#X connect 227 0 275 0;
#X connect 228 0 230 0;
#X connect 229 0 230 1;
#X connect 230 0 231 0;
#X connect 231 0 275 0;
#X connect 232 0 234 0;
#X connect 233 0 234 1;
#X connect 234 0 235 0;
#X connect 235 0 275 0;
#X connect 236 0 243 0;
#X connect 236 0 283 0;
#X connect 237 0 247 0;
#X connect 237 0 284 0;
#X connect 238 0 251 0;
#X connect 238 0 285 0;
#X connect 239 0 241 0;
#X connect 240 0 241 1;
#X connect 241 0 242 0;
#X connect 242 0 275 0;
#X connect 243 0 245 0;
#X connect 244 0 245 1;
#X connect 245 0 246 0;
#X connect 246 0 275 0;
#X connect 247 0 249 0;
#X connect 248 0 249 1;
#X connect 249 0 250 0;
#X connect 250 0 275 0;
#X connect 251 0 253 0;
#X connect 252 0 253 1;
#X connect 253 0 254 0;
#X connect 254 0 275 0;
#X connect 255 0 257 0;
#X connect 255 1 258 0;
#X connect 255 2 259 0;
#X connect 255 3 260 0;
#X connect 255 4 261 0;
#X connect 255 5 262 0;
#X connect 255 6 263 0;
#X connect 255 7 264 0;
#X connect 256 0 255 0;
#X connect 257 0 278 0;
#X connect 258 0 279 0;
#X connect 259 0 280 0;
#X connect 260 0 281 0;
#X connect 261 0 282 0;
#X connect 262 0 283 0;
#X connect 263 0 284 0;
#X connect 264 0 285 0;
#X connect 265 0 256 0;
#X connect 266 0 268 0;
#X connect 266 1 268 1;
#X connect 267 0 268 2;
#X connect 269 0 286 0;
#X connect 269 1 267 0;
#X connect 269 2 273 0;
#X connect 269 3 270 0;
#X connect 269 4 271 0;
#X connect 271 0 266 2;
#X connect 272 0 271 1;
#X connect 273 0 266 1;
#X connect 276 0 269 0;
#X connect 277 0 265 0;
#X connect 278 0 222 1;
#X connect 278 0 221 0;
#X connect 279 0 226 1;
#X connect 279 0 225 0;
#X connect 280 0 230 1;
#X connect 280 0 229 0;
#X connect 281 0 234 1;
#X connect 281 0 233 0;
#X connect 282 0 241 1;
#X connect 282 0 240 0;
#X connect 283 0 245 1;
#X connect 283 0 244 0;
#X connect 284 0 249 1;
#X connect 284 0 248 0;
#X connect 285 0 253 1;
#X connect 285 0 252 0;
#X connect 286 0 266 0;
#X connect 287 0 292 0;
#X connect 287 0 351 0;
#X connect 288 0 296 0;
#X connect 288 0 352 0;
#X connect 289 0 300 0;
#X connect 289 0 353 0;
#X connect 290 0 304 0;
#X connect 290 0 354 0;
#X connect 291 0 311 0;
#X connect 291 0 355 0;
#X connect 292 0 294 0;
#X connect 293 0 294 1;
#X connect 294 0 295 0;
#X connect 295 0 346 0;
#X connect 296 0 298 0;
#X connect 297 0 298 1;
#X connect 298 0 299 0;
#X connect 299 0 346 0;
#X connect 300 0 302 0;
#X connect 301 0 302 1;
#X connect 302 0 303 0;
#X connect 303 0 346 0;
#X connect 304 0 306 0;
#X connect 305 0 306 1;
#X connect 306 0 307 0;
#X connect 307 0 346 0;
#X connect 308 0 315 0;
#X connect 308 0 356 0;
#X connect 309 0 319 0;
#X connect 309 0 357 0;
#X connect 310 0 323 0;
#X connect 310 0 358 0;
#X connect 311 0 313 0;
#X connect 312 0 313 1;
#X connect 313 0 314 0;
#X connect 314 0 346 0;
#X connect 315 0 317 0;
#X connect 316 0 317 1;
#X connect 317 0 318 0;
#X connect 318 0 346 0;
#X connect 319 0 321 0;
#X connect 320 0 321 1;
#X connect 321 0 322 0;
#X connect 322 0 346 0;
#X connect 323 0 325 0;
#X connect 324 0 325 1;
#X connect 325 0 326 0;
#X connect 326 0 346 0;
#X connect 327 0 329 0;
#X connect 327 1 330 0;
#X connect 327 2 331 0;
#X connect 327 3 332 0;
#X connect 327 4 333 0;
#X connect 327 5 334 0;
#X connect 327 6 335 0;
#X connect 327 7 336 0;
#X connect 328 0 327 0;
#X connect 329 0 351 0;
#X connect 330 0 352 0;
#X connect 331 0 353 0;
#X connect 332 0 354 0;
#X connect 333 0 355 0;
#X connect 334 0 356 0;
#X connect 335 0 357 0;
#X connect 336 0 358 0;
#X connect 337 0 328 0;
#X connect 338 0 340 0;
#X connect 338 1 340 1;
#X connect 339 0 340 2;
#X connect 341 0 348 0;
#X connect 341 1 339 0;
#X connect 341 2 345 0;
#X connect 341 3 342 0;
#X connect 341 4 343 0;
#X connect 343 0 338 2;
#X connect 344 0 343 1;
#X connect 345 0 338 1;
#X connect 347 0 341 0;
#X connect 348 0 338 0;
#X connect 350 0 337 0;
#X connect 351 0 294 1;
#X connect 351 0 293 0;
#X connect 352 0 298 1;
#X connect 352 0 297 0;
#X connect 353 0 302 1;
#X connect 353 0 301 0;
#X connect 354 0 306 1;
#X connect 354 0 305 0;
#X connect 355 0 313 1;
#X connect 355 0 312 0;
#X connect 356 0 317 1;
#X connect 356 0 316 0;
#X connect 357 0 321 1;
#X connect 357 0 320 0;
#X connect 358 0 325 1;
#X connect 358 0 324 0;
#X connect 359 0 364 0;
#X connect 359 0 419 0;
#X connect 360 0 368 0;
#X connect 360 0 420 0;
#X connect 361 0 372 0;
#X connect 361 0 421 0;
#X connect 362 0 376 0;
#X connect 362 0 422 0;
#X connect 363 0 383 0;
#X connect 363 0 423 0;
#X connect 364 0 366 0;
#X connect 365 0 366 1;
#X connect 366 0 367 0;
#X connect 367 0 427 0;
#X connect 368 0 370 0;
#X connect 369 0 370 1;
#X connect 370 0 371 0;
#X connect 371 0 427 0;
#X connect 372 0 374 0;
#X connect 373 0 374 1;
#X connect 374 0 375 0;
#X connect 375 0 427 0;
#X connect 376 0 378 0;
#X connect 377 0 378 1;
#X connect 378 0 379 0;
#X connect 379 0 427 0;
#X connect 380 0 387 0;
#X connect 380 0 424 0;
#X connect 381 0 391 0;
#X connect 381 0 425 0;
#X connect 382 0 395 0;
#X connect 382 0 426 0;
#X connect 383 0 385 0;
#X connect 384 0 385 1;
#X connect 385 0 386 0;
#X connect 386 0 427 0;
#X connect 387 0 389 0;
#X connect 388 0 389 1;
#X connect 389 0 390 0;
#X connect 390 0 427 0;
#X connect 391 0 393 0;
#X connect 392 0 393 1;
#X connect 393 0 394 0;
#X connect 394 0 427 0;
#X connect 395 0 397 0;
#X connect 396 0 397 1;
#X connect 397 0 398 0;
#X connect 398 0 427 0;
#X connect 399 0 401 0;
#X connect 399 1 402 0;
#X connect 399 2 403 0;
#X connect 399 3 404 0;
#X connect 399 4 405 0;
#X connect 399 5 406 0;
#X connect 399 6 407 0;
#X connect 399 7 408 0;
#X connect 400 0 399 0;
#X connect 401 0 419 0;
#X connect 402 0 420 0;
#X connect 403 0 421 0;
#X connect 404 0 422 0;
#X connect 405 0 423 0;
#X connect 406 0 424 0;
#X connect 407 0 425 0;
#X connect 408 0 426 0;
#X connect 409 0 400 0;
#X connect 410 0 412 0;
#X connect 410 1 412 1;
#X connect 411 0 412 2;
#X connect 413 0 429 0;
#X connect 413 1 411 0;
#X connect 413 2 417 0;
#X connect 413 3 414 0;
#X connect 413 4 415 0;
#X connect 415 0 410 2;
#X connect 416 0 415 1;
#X connect 417 0 410 1;
#X connect 418 0 409 0;
#X connect 419 0 366 1;
#X connect 419 0 365 0;
#X connect 420 0 370 1;
#X connect 420 0 369 0;
#X connect 421 0 374 1;
#X connect 421 0 373 0;
#X connect 422 0 378 1;
#X connect 422 0 377 0;
#X connect 423 0 385 1;
#X connect 423 0 384 0;
#X connect 424 0 389 1;
#X connect 424 0 388 0;
#X connect 425 0 393 1;
#X connect 425 0 392 0;
#X connect 426 0 397 1;
#X connect 426 0 396 0;
#X connect 428 0 413 0;
#X connect 429 0 410 0;
